<?xml version="1.0" encoding="utf-8"?>
<!-- Generator: Adobe Illustrator 26.5.0, SVG Export Plug-In . SVG Version: 6.00 Build 0)  -->
<svg version="1.1" id="Layer_1" xmlns="http://www.w3.org/2000/svg" xmlns:xlink="http://www.w3.org/1999/xlink" x="0px" y="0px"
	 viewBox="0 0 512 512" style="enable-background:new 0 0 512 512;" xml:space="preserve">
<style type="text/css">
	.st0{fill:#1F70C1;}
</style>
<path class="st0" d="M0,153.6v14.08h99.7V153.6H0z M113.78,153.6v14.08h142.08c0,0-14.51-14.08-33.71-14.08H113.78z M283.59,153.6
	v14.08h85.9l-5.12-14.08H283.59z M431.22,153.6l-5.12,14.08h85.19V153.6H431.22z M0,180.91v14.08h99.7v-14.08H0z M113.78,180.91
	v13.94h158.44c0,0-1.85-10.81-5.12-13.94H113.78z M283.59,180.91v13.94h95.29l-4.69-13.94H283.59z M420.98,180.91l-4.69,13.94h95
	v-13.94H420.98z M28.59,208.07v14.08h43.09v-14.08H28.59z M142.36,208.07v14.08h43.09v-14.08H142.36z M227.56,208.07v14.08h43.09
	c0,0,2.7-7.4,2.7-14.08H227.56z M312.32,208.07v14.08h76.52l-5.12-14.08H312.32z M411.59,208.07l-5.12,14.08h76.94v-14.08H411.59z
	 M28.59,235.38v14.08h43.09v-14.08H28.59z M142.36,235.38v14.08h110.22c0,0,9.24-7.25,12.23-14.08H142.36z M312.32,235.38v14.08
	h43.09v-7.82l2.7,7.82h79.08l2.99-7.82v7.82h43.09v-14.08H402.2l-4.27,11.8l-4.27-11.8H312.32z M28.59,262.68v14.08h43.09v-14.08
	H28.59L28.59,262.68z M142.36,262.68v14.08h122.45c-2.99-6.83-12.23-14.08-12.23-14.08H142.36L142.36,262.68z M312.32,262.68v14.08
	h43.09v-14.08H312.32L312.32,262.68z M363.24,262.68l5.26,14.08h59.31l4.98-14.08H363.24L363.24,262.68z M440.18,262.68v14.08h43.09
	v-14.08H440.18L440.18,262.68z M28.59,289.85v14.08h43.09v-14.08H28.59z M142.36,289.85v14.08h43.09v-14.08H142.36z M227.56,289.85
	v14.08h45.94c0-6.54-2.7-14.08-2.7-14.08H227.56z M312.32,289.85v14.08h43.09v-14.08H312.32z M373.05,289.85l5.12,14.08h39.68
	l5.12-14.08H373.05z M440.18,289.85v14.08h43.09v-14.08H440.18z M0.71,317.16v14.08h99.7v-14.08H0.71z M113.78,317.16v14.08h153.46
	c3.27-3.27,5.12-14.08,5.12-14.08H113.78z M284.44,317.16v14.08h70.97v-14.08H284.44z M382.86,317.16l5.26,14.08h20.2l4.84-14.08
	H382.86z M440.18,317.16v14.08H512v-14.08H440.18z M0.71,344.32v14.08h99.7v-14.08H0.71z M113.78,344.32v13.94h108.23
	c19.2,0,33.71-13.94,33.71-13.94H113.78z M284.44,344.32v14.08h70.97v-14.08H284.44z M392.82,344.32l4.98,13.94h0.85l5.12-13.94
	H392.82z M440.18,344.32v14.08H512v-14.08H440.18z"/>
</svg>
